<?xml version="1.0" encoding="UTF-8" standalone="no"?><!DOCTYPE svg PUBLIC "-//W3C//DTD SVG 1.1//EN" "http://www.w3.org/Graphics/SVG/1.1/DTD/svg11.dtd"><!-- Generated by graphviz version 2.40.1 (20161225.0304)
 --><!-- Title: g Pages: 1 --><svg xmlns="http://www.w3.org/2000/svg" xmlns:xlink="http://www.w3.org/1999/xlink" width="249pt" height="426pt" viewBox="0.00 0.00 249.00 426.40">
<g id="graph0" class="graph" transform="scale(1 1) rotate(0) translate(4 422.4)">
<title>g</title>
<polygon fill="#ffffff" stroke="transparent" points="-4,4 -4,-422.4 245,-422.4 245,4 -4,4"/>
<text text-anchor="start" x="103.2065" y="-400.9" font-family="Times,serif" font-size="15.00" fill="#000000">17.txt</text>
<!-- C -->
<g id="node1" class="node">
<title>C</title>
<ellipse fill="none" stroke="#ff0000" cx="73" cy="-374.4" rx="27" ry="18"/>
<text text-anchor="middle" x="73" y="-370.2" font-family="Times,serif" font-size="14.00" fill="#000000">C</text>
</g>
<!-- D -->
<g id="node2" class="node">
<title>D</title>
<ellipse fill="none" stroke="#000000" cx="183" cy="-285.6" rx="27" ry="18"/>
<text text-anchor="middle" x="183" y="-281.4" font-family="Times,serif" font-size="14.00" fill="#000000">D</text>
</g>
<!-- C&#45;&gt;D -->
<g id="edge1" class="edge">
<title>C-&gt;D</title>
<path fill="none" stroke="#000000" d="M91.8415,-361.4876C101.348,-354.8095 112.9617,-346.3994 123,-338.4 138.4092,-326.1206 155.1845,-311.2183 167.0693,-300.3809"/>
<text text-anchor="start" x="141" y="-326.8" font-family="Times,serif" font-weight="bold" font-size="14.00" fill="#000000">9</text>
</g>
<!-- E -->
<g id="node3" class="node">
<title>E</title>
<ellipse fill="none" stroke="#ff0000" cx="136" cy="-196.8" rx="27" ry="18"/>
<text text-anchor="middle" x="136" y="-192.6" font-family="Times,serif" font-size="14.00" fill="#000000">E</text>
</g>
<!-- C&#45;&gt;E -->
<g id="edge2" class="edge">
<title>C-&gt;E</title>
<path fill="none" stroke="#ff0000" d="M79.271,-356.7217C91.3468,-322.6794 117.6985,-248.3927 129.7544,-214.4068"/>
<text text-anchor="start" x="110" y="-282.1" font-family="Times,serif" font-weight="bold" font-size="14.00" fill="#000000">3</text>
<text text-anchor="start" x="117" y="-282.1" font-family="Times,serif" font-size="14.00" fill="#000000"> </text>
<text text-anchor="start" x="120.5" y="-282.1" font-family="Times,serif" text-decoration="underline" font-size="15.00" fill="#ff0000">5.0</text>
</g>
<!-- B -->
<g id="node4" class="node">
<title>B</title>
<ellipse fill="none" stroke="#000000" cx="84" cy="-106.8" rx="27" ry="18"/>
<text text-anchor="middle" x="84" y="-102.6" font-family="Times,serif" font-size="14.00" fill="#000000">B</text>
</g>
<!-- C&#45;&gt;B -->
<g id="edge3" class="edge">
<title>C-&gt;B</title>
<path fill="none" stroke="#000000" d="M71.711,-356.284C69.2412,-317.1305 64.9312,-221.7762 75,-142.8 75.7659,-136.7928 77.1827,-130.3434 78.6693,-124.5864"/>
<text text-anchor="start" x="68" y="-238" font-family="Times,serif" font-weight="bold" font-size="14.00" fill="#000000">1</text>
</g>
<!-- A -->
<g id="node5" class="node">
<title>A</title>
<ellipse fill="none" stroke="#000000" cx="84" cy="-18" rx="27" ry="18"/>
<text text-anchor="middle" x="84" y="-13.8" font-family="Times,serif" font-size="14.00" fill="#000000">A</text>
</g>
<!-- C&#45;&gt;A -->
<g id="edge4" class="edge">
<title>C-&gt;A</title>
<path fill="none" stroke="#000000" d="M53.0524,-362.0205C31.4385,-346.8937 0,-319.1283 0,-285.6 0,-285.6 0,-285.6 0,-106.8 0,-70.5114 37.4793,-43.0811 62.3679,-28.8663"/>
<text text-anchor="start" x="0" y="-193.6" font-family="Times,serif" font-weight="bold" font-size="14.00" fill="#000000">3</text>
</g>
<!-- D&#45;&gt;E -->
<g id="edge5" class="edge">
<title>D-&gt;E</title>
<path fill="none" stroke="#000000" d="M173.9379,-268.4785C165.6153,-252.754 153.3481,-229.5768 145.0343,-213.869"/>
<text text-anchor="start" x="163" y="-238" font-family="Times,serif" font-weight="bold" font-size="14.00" fill="#000000">2</text>
</g>
<!-- D&#45;&gt;B -->
<g id="edge6" class="edge">
<title>D-&gt;B</title>
<path fill="none" stroke="#000000" d="M160.8825,-275.0152C139.4613,-263.4639 108.0733,-242.8102 93,-214.8 77.6644,-186.3025 78.8733,-147.3456 81.3177,-124.8483"/>
<text text-anchor="start" x="93" y="-193.6" font-family="Times,serif" font-weight="bold" font-size="14.00" fill="#000000">7</text>
</g>
<!-- G -->
<g id="node6" class="node">
<title>G</title>
<ellipse fill="none" stroke="#000000" cx="214" cy="-18" rx="27" ry="18"/>
<text text-anchor="middle" x="214" y="-13.8" font-family="Times,serif" font-size="14.00" fill="#000000">G</text>
</g>
<!-- D&#45;&gt;G -->
<g id="edge7" class="edge">
<title>D-&gt;G</title>
<path fill="none" stroke="#000000" d="M193.6776,-269.0182C196.9461,-263.1178 200.1614,-256.2772 202,-249.6 223.2168,-172.5471 218.7457,-75.7414 215.6669,-36.1417"/>
<text text-anchor="start" x="217" y="-148.6" font-family="Times,serif" font-weight="bold" font-size="14.00" fill="#000000">12</text>
</g>
<!-- F -->
<g id="node7" class="node">
<title>F</title>
<ellipse fill="none" stroke="#ff0000" cx="156" cy="-106.8" rx="27" ry="18"/>
<text text-anchor="middle" x="156" y="-102.6" font-family="Times,serif" font-size="14.00" fill="#000000">F</text>
</g>
<!-- D&#45;&gt;F -->
<g id="edge8" class="edge">
<title>D-&gt;F</title>
<path fill="none" stroke="#000000" d="M185.7848,-267.4948C189.339,-239.8666 193.5311,-185.8546 180,-142.8 177.7479,-135.634 173.5931,-128.5733 169.3658,-122.629"/>
<text text-anchor="start" x="189" y="-193.6" font-family="Times,serif" font-weight="bold" font-size="14.00" fill="#000000">1</text>
</g>
<!-- E&#45;&gt;B -->
<g id="edge9" class="edge">
<title>E-&gt;B</title>
<path fill="none" stroke="#000000" d="M126.2192,-179.8717C116.9224,-163.7811 103.0192,-139.7178 93.7369,-123.6524"/>
<text text-anchor="start" x="114" y="-148.6" font-family="Times,serif" font-weight="bold" font-size="14.00" fill="#000000">5</text>
</g>
<!-- E&#45;&gt;F -->
<g id="edge10" class="edge">
<title>E-&gt;F</title>
<path fill="none" stroke="#ff0000" d="M140.0473,-178.5872C143.54,-162.8698 148.5561,-140.2978 152.027,-124.6786"/>
<text text-anchor="start" x="147" y="-148.3" font-family="Times,serif" font-weight="bold" font-size="14.00" fill="#000000">2</text>
<text text-anchor="start" x="154" y="-148.3" font-family="Times,serif" font-size="14.00" fill="#000000"> </text>
<text text-anchor="start" x="157.5" y="-148.3" font-family="Times,serif" text-decoration="underline" font-size="15.00" fill="#ff0000">7.0</text>
</g>
<!-- B&#45;&gt;A -->
<g id="edge12" class="edge">
<title>B-&gt;A</title>
<path fill="none" stroke="#000000" d="M84,-88.4006C84,-73.0587 84,-51.322 84,-36.072"/>
<text text-anchor="start" x="84" y="-59.2" font-family="Times,serif" font-weight="bold" font-size="14.00" fill="#000000">1</text>
</g>
<!-- B&#45;&gt;G -->
<g id="edge11" class="edge">
<title>B-&gt;G</title>
<path fill="none" stroke="#000000" d="M104.6079,-95.1601C116.3426,-88.3533 131.2091,-79.426 144,-70.8 162.426,-58.3737 182.6028,-42.9476 196.5402,-31.9851"/>
<text text-anchor="start" x="167" y="-59.2" font-family="Times,serif" font-weight="bold" font-size="14.00" fill="#000000">2</text>
</g>
<!-- F&#45;&gt;A -->
<g id="edge13" class="edge">
<title>F-&gt;A</title>
<path fill="none" stroke="#000000" d="M143.1278,-90.9243C130.1034,-74.8608 110.0748,-50.1589 97.0035,-34.0376"/>
<text text-anchor="start" x="126" y="-59.2" font-family="Times,serif" font-weight="bold" font-size="14.00" fill="#000000">10</text>
</g>
</g>
</svg>