<?xml version="1.0" encoding="UTF-8" standalone="no"?><!DOCTYPE svg PUBLIC "-//W3C//DTD SVG 1.1//EN" "http://www.w3.org/Graphics/SVG/1.1/DTD/svg11.dtd"><!-- Generated by graphviz version 2.40.1 (20161225.0304)
 --><!-- Title: g Pages: 1 --><svg xmlns="http://www.w3.org/2000/svg" xmlns:xlink="http://www.w3.org/1999/xlink" width="192pt" height="428pt" viewBox="0.00 0.00 192.00 427.60">
<g id="graph0" class="graph" transform="scale(1 1) rotate(0) translate(4 423.6)">
<title>g</title>
<polygon fill="#ffffff" stroke="transparent" points="-4,4 -4,-423.6 188,-423.6 188,4 -4,4"/>
<text text-anchor="start" x="78.4565" y="-402.1" font-family="Times,serif" font-size="15.00" fill="#000000">7.txt</text>
<!-- 0 -->
<g id="node1" class="node">
<title>0</title>
<ellipse fill="none" stroke="#ff0000" cx="101" cy="-375.6" rx="27" ry="18"/>
<text text-anchor="middle" x="101" y="-371.4" font-family="Times,serif" font-size="14.00" fill="#000000">0</text>
</g>
<!-- 2 -->
<g id="node2" class="node">
<title>2</title>
<ellipse fill="none" stroke="#ff0000" cx="32" cy="-198" rx="27" ry="18"/>
<text text-anchor="middle" x="32" y="-193.8" font-family="Times,serif" font-size="14.00" fill="#000000">2</text>
</g>
<!-- 0&#45;&gt;2 -->
<g id="edge1" class="edge">
<title>0-&gt;2</title>
<path fill="none" stroke="#ff0000" d="M82.8382,-362.1775C67.1588,-349.3948 45.5335,-328.6104 35.75,-304.8 25.4485,-279.729 25.6834,-248.491 27.7838,-226.2897"/>
<polygon fill="#ff0000" stroke="#ff0000" points="31.2808,-226.5134 28.9268,-216.1834 24.3251,-225.7267 31.2808,-226.5134"/>
<text text-anchor="start" x="36" y="-283.3" font-family="Times,serif" font-weight="bold" font-size="14.00" fill="#000000">5</text>
<text text-anchor="start" x="43" y="-283.3" font-family="Times,serif" font-size="14.00" fill="#000000"> </text>
<text text-anchor="start" x="46.5" y="-283.3" font-family="Times,serif" text-decoration="underline" font-size="15.00" fill="#ff0000">5.0</text>
</g>
<!-- 3 -->
<g id="node3" class="node">
<title>3</title>
<ellipse fill="none" stroke="#000000" cx="101" cy="-286.8" rx="27" ry="18"/>
<text text-anchor="middle" x="101" y="-282.6" font-family="Times,serif" font-size="14.00" fill="#000000">3</text>
</g>
<!-- 0&#45;&gt;3 -->
<g id="edge2" class="edge">
<title>0-&gt;3</title>
<path fill="none" stroke="#000000" d="M101,-357.2006C101,-345.0949 101,-329.0076 101,-315.2674"/>
<polygon fill="#000000" stroke="#000000" points="104.5001,-314.872 101,-304.872 97.5001,-314.8721 104.5001,-314.872"/>
<text text-anchor="start" x="101" y="-328" font-family="Times,serif" font-weight="bold" font-size="14.00" fill="#000000">3</text>
</g>
<!-- 1 -->
<g id="node4" class="node">
<title>1</title>
<ellipse fill="none" stroke="#000000" cx="157" cy="-198" rx="27" ry="18"/>
<text text-anchor="middle" x="157" y="-193.8" font-family="Times,serif" font-size="14.00" fill="#000000">1</text>
</g>
<!-- 0&#45;&gt;1 -->
<g id="edge3" class="edge">
<title>0-&gt;1</title>
<path fill="none" stroke="#000000" d="M111.3076,-358.746C119.4244,-344.7662 130.43,-324.1219 137,-304.8 145.8198,-278.8615 151.0694,-247.9799 153.9609,-226.1123"/>
<polygon fill="#000000" stroke="#000000" points="157.4374,-226.5177 155.1963,-216.1626 150.4907,-225.6551 157.4374,-226.5177"/>
<text text-anchor="start" x="147" y="-283.6" font-family="Times,serif" font-weight="bold" font-size="14.00" fill="#000000">14</text>
</g>
<!-- 5 -->
<g id="node5" class="node">
<title>5</title>
<ellipse fill="none" stroke="#000000" cx="27" cy="-108" rx="27" ry="18"/>
<text text-anchor="middle" x="27" y="-103.8" font-family="Times,serif" font-size="14.00" fill="#000000">5</text>
</g>
<!-- 2&#45;&gt;5 -->
<g id="edge4" class="edge">
<title>2-&gt;5</title>
<path fill="none" stroke="#000000" d="M30.9882,-179.7872C30.2969,-167.3443 29.367,-150.6053 28.5789,-136.4211"/>
<polygon fill="#000000" stroke="#000000" points="32.0597,-135.9762 28.0103,-126.1858 25.0705,-136.3645 32.0597,-135.9762"/>
<text text-anchor="start" x="30" y="-149.8" font-family="Times,serif" font-weight="bold" font-size="14.00" fill="#000000">2</text>
</g>
<!-- 4 -->
<g id="node6" class="node">
<title>4</title>
<ellipse fill="none" stroke="#ff0000" cx="99" cy="-108" rx="27" ry="18"/>
<text text-anchor="middle" x="99" y="-103.8" font-family="Times,serif" font-size="14.00" fill="#000000">4</text>
</g>
<!-- 2&#45;&gt;4 -->
<g id="edge5" class="edge">
<title>2-&gt;4</title>
<path fill="none" stroke="#ff0000" d="M38.2384,-180.4511C42.6763,-169.3627 49.3371,-155.0872 57.75,-144 62.0736,-138.302 67.4196,-132.8433 72.8133,-127.9755"/>
<polygon fill="#ff0000" stroke="#ff0000" points="75.2962,-130.458 80.6363,-121.3074 70.7554,-125.1307 75.2962,-130.458"/>
<text text-anchor="start" x="58" y="-149.5" font-family="Times,serif" font-weight="bold" font-size="14.00" fill="#000000">3</text>
<text text-anchor="start" x="65" y="-149.5" font-family="Times,serif" font-size="14.00" fill="#000000"> </text>
<text text-anchor="start" x="68.5" y="-149.5" font-family="Times,serif" text-decoration="underline" font-size="15.00" fill="#ff0000">8.0</text>
</g>
<!-- 3&#45;&gt;2 -->
<g id="edge6" class="edge">
<title>3-&gt;2</title>
<path fill="none" stroke="#000000" d="M88.4528,-270.6734C83.6215,-264.4625 78.053,-257.302 73,-250.8 65.7682,-241.4944 57.8225,-231.2634 50.8671,-222.3054"/>
<polygon fill="#000000" stroke="#000000" points="53.4548,-219.9311 44.5576,-214.1786 47.9256,-224.2239 53.4548,-219.9311"/>
<text text-anchor="start" x="73" y="-239.2" font-family="Times,serif" font-weight="bold" font-size="14.00" fill="#000000">11</text>
</g>
<!-- 3&#45;&gt;1 -->
<g id="edge8" class="edge">
<title>3-&gt;1</title>
<path fill="none" stroke="#000000" d="M111.5332,-270.0974C119.8243,-256.9501 131.5175,-238.408 140.9692,-223.4203"/>
<polygon fill="#000000" stroke="#000000" points="144.1403,-224.9532 146.5141,-214.6277 138.2193,-221.2192 144.1403,-224.9532"/>
<text text-anchor="start" x="135" y="-239.2" font-family="Times,serif" font-weight="bold" font-size="14.00" fill="#000000">6</text>
</g>
<!-- 3&#45;&gt;4 -->
<g id="edge7" class="edge">
<title>3-&gt;4</title>
<path fill="none" stroke="#000000" d="M100.7972,-268.6717C100.4483,-237.481 99.732,-173.4452 99.3168,-136.3247"/>
<polygon fill="#000000" stroke="#000000" points="102.815,-136.1364 99.2033,-126.1762 95.8155,-136.2148 102.815,-136.1364"/>
<text text-anchor="start" x="101" y="-194.8" font-family="Times,serif" font-weight="bold" font-size="14.00" fill="#000000">7</text>
</g>
<!-- 1&#45;&gt;4 -->
<g id="edge10" class="edge">
<title>1-&gt;4</title>
<path fill="none" stroke="#000000" d="M146.0906,-181.0717C137.3675,-167.5358 125.0085,-148.358 115.1405,-133.0455"/>
<polygon fill="#000000" stroke="#000000" points="118.0235,-131.0581 109.6645,-124.5483 112.1395,-134.85 118.0235,-131.0581"/>
<text text-anchor="start" x="134" y="-149.8" font-family="Times,serif" font-weight="bold" font-size="14.00" fill="#000000">7</text>
</g>
<!-- 6 -->
<g id="node7" class="node">
<title>6</title>
<ellipse fill="none" stroke="#ff0000" cx="99" cy="-18" rx="27" ry="18"/>
<text text-anchor="middle" x="99" y="-13.8" font-family="Times,serif" font-size="14.00" fill="#000000">6</text>
</g>
<!-- 1&#45;&gt;6 -->
<g id="edge9" class="edge">
<title>1-&gt;6</title>
<path fill="none" stroke="#000000" d="M158.8358,-179.9653C160.9032,-151.4542 161.5485,-95.0019 140,-54 136.6839,-47.6902 131.7748,-41.9794 126.4956,-37.0605"/>
<polygon fill="#000000" stroke="#000000" points="128.5421,-34.2081 118.6388,-30.443 124.0326,-39.5621 128.5421,-34.2081"/>
<text text-anchor="start" x="159" y="-104.8" font-family="Times,serif" font-weight="bold" font-size="14.00" fill="#000000">6</text>
</g>
<!-- 5&#45;&gt;6 -->
<g id="edge12" class="edge">
<title>5-&gt;6</title>
<path fill="none" stroke="#000000" d="M39.8722,-91.9098C50.9298,-78.0877 67.0359,-57.9551 79.647,-42.1913"/>
<polygon fill="#000000" stroke="#000000" points="82.7253,-43.946 86.2393,-33.9509 77.2592,-39.5732 82.7253,-43.946"/>
<text text-anchor="start" x="70" y="-59.8" font-family="Times,serif" font-weight="bold" font-size="14.00" fill="#000000">7</text>
</g>
<!-- 4&#45;&gt;6 -->
<g id="edge11" class="edge">
<title>4-&gt;6</title>
<path fill="none" stroke="#ff0000" d="M99,-89.7872C99,-77.3443 99,-60.6053 99,-46.4211"/>
<polygon fill="#ff0000" stroke="#ff0000" points="102.5001,-46.1857 99,-36.1858 95.5001,-46.1858 102.5001,-46.1857"/>
<text text-anchor="start" x="99" y="-59.5" font-family="Times,serif" font-weight="bold" font-size="14.00" fill="#000000">5</text>
<text text-anchor="start" x="106" y="-59.5" font-family="Times,serif" font-size="14.00" fill="#000000"> </text>
<text text-anchor="start" x="109.5" y="-59.5" font-family="Times,serif" text-decoration="underline" font-size="15.00" fill="#ff0000">13.0</text>
</g>
</g>
</svg>