<?xml version="1.0" encoding="UTF-8" standalone="no"?><!DOCTYPE svg PUBLIC "-//W3C//DTD SVG 1.1//EN" "http://www.w3.org/Graphics/SVG/1.1/DTD/svg11.dtd"><!-- Generated by graphviz version 2.40.1 (20161225.0304)
 --><!-- Title: g Pages: 1 --><svg xmlns="http://www.w3.org/2000/svg" xmlns:xlink="http://www.w3.org/1999/xlink" width="127pt" height="332pt" viewBox="0.00 0.00 127.00 332.00">
<g id="graph0" class="graph" transform="scale(1 1) rotate(0) translate(4 328)">
<title>g</title>
<polygon fill="#ffffff" stroke="transparent" points="-4,4 -4,-328 123,-328 123,4 -4,4"/>
<!-- A -->
<g id="node1" class="node">
<title>A</title>
<ellipse fill="none" stroke="#000000" cx="92" cy="-306" rx="27" ry="18"/>
<text text-anchor="middle" x="92" y="-301.8" font-family="Times,serif" font-size="14.00" fill="#000000">A</text>
</g>
<!-- B -->
<g id="node2" class="node">
<title>B</title>
<ellipse fill="none" stroke="#000000" cx="46" cy="-234" rx="27" ry="18"/>
<text text-anchor="middle" x="46" y="-229.8" font-family="Times,serif" font-size="14.00" fill="#000000">B</text>
</g>
<!-- A&#45;&gt;B -->
<g id="edge1" class="edge">
<title>A-&gt;B</title>
<path fill="none" stroke="#ff0000" d="M81.3311,-289.3008C75.6414,-280.3952 68.5223,-269.2524 62.1684,-259.307"/>
<polygon fill="#ff0000" stroke="#ff0000" points="64.9445,-257.1513 56.6111,-250.6087 59.0456,-260.92 64.9445,-257.1513"/>
</g>
<!-- C -->
<g id="node3" class="node">
<title>C</title>
<ellipse fill="none" stroke="#000000" cx="27" cy="-162" rx="27" ry="18"/>
<text text-anchor="middle" x="27" y="-157.8" font-family="Times,serif" font-size="14.00" fill="#000000">C</text>
</g>
<!-- B&#45;&gt;C -->
<g id="edge2" class="edge">
<title>B-&gt;C</title>
<path fill="none" stroke="#ff0000" d="M35.7925,-217.3008C32.7754,-209.2118 29.8866,-199.2769 27.8051,-190.0702"/>
<polygon fill="#ff0000" stroke="#ff0000" points="31.211,-189.2514 25.8344,-180.1222 24.3444,-190.6117 31.211,-189.2514"/>
</g>
<!-- E -->
<g id="node4" class="node">
<title>E</title>
<ellipse fill="none" stroke="#000000" cx="82" cy="-90" rx="27" ry="18"/>
<text text-anchor="middle" x="82" y="-85.8" font-family="Times,serif" font-size="14.00" fill="#000000">E</text>
</g>
<!-- B&#45;&gt;E -->
<g id="edge3" class="edge">
<title>B-&gt;E</title>
<path fill="none" stroke="#ff0000" d="M52.106,-216.1267C55.558,-205.6689 59.808,-192.1689 63,-180 68.3939,-159.4364 73.3159,-135.9219 76.7982,-118.0864"/>
<polygon fill="#ff0000" stroke="#ff0000" points="80.2768,-118.5303 78.7232,-108.0499 73.4021,-117.2116 80.2768,-118.5303"/>
</g>
<!-- C&#45;&gt;B -->
<g id="edge5" class="edge">
<title>C-&gt;B</title>
<path fill="none" stroke="#ff0000" d="M37.292,-178.9263C40.282,-186.9834 43.1397,-196.8328 45.2023,-205.9628"/>
<polygon fill="#ff0000" stroke="#ff0000" points="41.7808,-206.7025 47.1579,-215.8314 48.6473,-205.3417 41.7808,-206.7025"/>
</g>
<!-- C&#45;&gt;E -->
<g id="edge4" class="edge">
<title>C-&gt;E</title>
<path fill="none" stroke="#ff0000" d="M39.4804,-145.6621C46.5124,-136.4564 55.4347,-124.7764 63.2883,-114.4953"/>
<polygon fill="#ff0000" stroke="#ff0000" points="66.28,-116.3446 69.569,-106.2733 60.7172,-112.0953 66.28,-116.3446"/>
</g>
<!-- E&#45;&gt;A -->
<g id="edge6" class="edge">
<title>E-&gt;A</title>
<path fill="none" stroke="#ff0000" d="M82.84,-108.1451C84.5831,-145.7945 88.6037,-232.6409 90.6903,-277.7103"/>
<polygon fill="#ff0000" stroke="#ff0000" points="87.2058,-278.1281 91.1646,-287.9555 94.1983,-277.8043 87.2058,-278.1281"/>
</g>
<!-- D -->
<g id="node5" class="node">
<title>D</title>
<ellipse fill="none" stroke="#000000" cx="82" cy="-18" rx="27" ry="18"/>
<text text-anchor="middle" x="82" y="-13.8" font-family="Times,serif" font-size="14.00" fill="#000000">D</text>
</g>
<!-- E&#45;&gt;D -->
<g id="edge7" class="edge">
<title>E-&gt;D</title>
<path fill="none" stroke="#ff0000" d="M76.0843,-72.2022C75.2798,-64.1807 75.0571,-54.5231 75.4162,-45.5957"/>
<polygon fill="#ff0000" stroke="#ff0000" points="78.9097,-45.8099 76.105,-35.593 71.9262,-45.3289 78.9097,-45.8099"/>
</g>
<!-- D&#45;&gt;C -->
<g id="edge8" class="edge">
<title>D-&gt;C</title>
<path fill="none" stroke="#ff0000" d="M68.9011,-34.0847C61.1559,-44.3613 51.7648,-58.2898 46,-72 37.6694,-91.8124 32.8467,-115.6679 30.1459,-133.8395"/>
<polygon fill="#ff0000" stroke="#ff0000" points="26.6698,-133.4279 28.7905,-143.8083 33.6059,-134.3711 26.6698,-133.4279"/>
</g>
<!-- D&#45;&gt;E -->
<g id="edge9" class="edge">
<title>D-&gt;E</title>
<path fill="none" stroke="#ff0000" d="M87.895,-35.593C88.7094,-43.5865 88.942,-53.2363 88.5928,-62.1759"/>
<polygon fill="#ff0000" stroke="#ff0000" points="85.0976,-61.9891 87.9157,-72.2022 92.0817,-62.4608 85.0976,-61.9891"/>
</g>
</g>
</svg>